<mxfile host="www.draw.io" modified="2019-12-02T03:35:47.768Z" agent="Mozilla/5.0 (Windows NT 6.1; WOW64) AppleWebKit/537.36 (KHTML, like Gecko) Chrome/78.0.3904.108 Safari/537.36" etag="jn8CFl2Ao8bNBlanvbjX" version="12.3.3" type="github" pages="1">
  <diagram id="9FEHb_WLnoKMGhMwpZKW" name="第 1 页">
    <mxGraphModel dx="1408" dy="748" grid="1" gridSize="10" guides="1" tooltips="1" connect="1" arrows="1" fold="1" page="1" pageScale="1" pageWidth="4681" pageHeight="3300" math="0" shadow="0">
      <root>
        <mxCell id="0"/>
        <mxCell id="1" parent="0"/>
        <mxCell id="2O-RAt6t5xSQddA-2Dkh-1" value="" style="shape=partialRectangle;whiteSpace=wrap;html=1;left=0;right=0;fillColor=none;rotation=90;" vertex="1" parent="1">
          <mxGeometry x="1690" y="755" width="865" height="600" as="geometry"/>
        </mxCell>
        <mxCell id="2O-RAt6t5xSQddA-2Dkh-2" value="CLOSE" style="rounded=0;whiteSpace=wrap;html=1;" vertex="1" parent="1">
          <mxGeometry x="600" y="240" width="90" height="55" as="geometry"/>
        </mxCell>
        <mxCell id="2O-RAt6t5xSQddA-2Dkh-3" value="LISTEN" style="rounded=0;whiteSpace=wrap;html=1;" vertex="1" parent="1">
          <mxGeometry x="1105" y="300" width="90" height="95" as="geometry"/>
        </mxCell>
        <mxCell id="2O-RAt6t5xSQddA-2Dkh-5" value="" style="endArrow=classic;html=1;entryX=0;entryY=0.976;entryDx=0;entryDy=0;entryPerimeter=0;exitX=1.022;exitY=1.014;exitDx=0;exitDy=0;exitPerimeter=0;" edge="1" parent="1" source="2O-RAt6t5xSQddA-2Dkh-2" target="2O-RAt6t5xSQddA-2Dkh-3">
          <mxGeometry width="50" height="50" relative="1" as="geometry">
            <mxPoint x="390" y="285" as="sourcePoint"/>
            <mxPoint x="440" y="235" as="targetPoint"/>
          </mxGeometry>
        </mxCell>
        <mxCell id="2O-RAt6t5xSQddA-2Dkh-6" value="ESTABLISHED" style="rounded=0;whiteSpace=wrap;html=1;" vertex="1" parent="1">
          <mxGeometry x="600" y="505" width="90" height="50" as="geometry"/>
        </mxCell>
        <mxCell id="2O-RAt6t5xSQddA-2Dkh-7" value="" style="endArrow=classic;html=1;exitX=0;exitY=1;exitDx=0;exitDy=0;exitPerimeter=0;entryX=1.022;entryY=0.043;entryDx=0;entryDy=0;entryPerimeter=0;" edge="1" parent="1" source="2O-RAt6t5xSQddA-2Dkh-3" target="2O-RAt6t5xSQddA-2Dkh-6">
          <mxGeometry width="50" height="50" relative="1" as="geometry">
            <mxPoint x="420" y="565" as="sourcePoint"/>
            <mxPoint x="470" y="515" as="targetPoint"/>
          </mxGeometry>
        </mxCell>
        <mxCell id="2O-RAt6t5xSQddA-2Dkh-8" value="ESTABLISHED" style="rounded=0;whiteSpace=wrap;html=1;" vertex="1" parent="1">
          <mxGeometry x="1105" y="600" width="90" height="50" as="geometry"/>
        </mxCell>
        <mxCell id="2O-RAt6t5xSQddA-2Dkh-9" value="" style="endArrow=classic;html=1;entryX=0;entryY=0;entryDx=0;entryDy=0;entryPerimeter=0;exitX=1.022;exitY=0.057;exitDx=0;exitDy=0;exitPerimeter=0;" edge="1" parent="1" source="2O-RAt6t5xSQddA-2Dkh-6" target="2O-RAt6t5xSQddA-2Dkh-8">
          <mxGeometry width="50" height="50" relative="1" as="geometry">
            <mxPoint x="701.98" y="341.96000000000004" as="sourcePoint"/>
            <mxPoint x="1300" y="390.9200000000001" as="targetPoint"/>
          </mxGeometry>
        </mxCell>
        <mxCell id="2O-RAt6t5xSQddA-2Dkh-10" value="ESTABLISHED" style="rounded=0;whiteSpace=wrap;html=1;" vertex="1" parent="1">
          <mxGeometry x="600" y="720" width="90" height="50" as="geometry"/>
        </mxCell>
        <mxCell id="2O-RAt6t5xSQddA-2Dkh-11" value="ESTABLISHED" style="rounded=0;whiteSpace=wrap;html=1;" vertex="1" parent="1">
          <mxGeometry x="1105" y="800" width="90" height="50" as="geometry"/>
        </mxCell>
        <mxCell id="2O-RAt6t5xSQddA-2Dkh-12" value="" style="endArrow=classic;html=1;entryX=0;entryY=0.976;entryDx=0;entryDy=0;entryPerimeter=0;exitX=0.996;exitY=-0.006;exitDx=0;exitDy=0;exitPerimeter=0;strokeWidth=1;" edge="1" parent="1" source="2O-RAt6t5xSQddA-2Dkh-21" target="2O-RAt6t5xSQddA-2Dkh-11">
          <mxGeometry width="50" height="50" relative="1" as="geometry">
            <mxPoint x="692" y="762" as="sourcePoint"/>
            <mxPoint x="440" y="665" as="targetPoint"/>
          </mxGeometry>
        </mxCell>
        <mxCell id="2O-RAt6t5xSQddA-2Dkh-13" value="&lt;span style=&quot;white-space: normal&quot;&gt;FIN_WAIT_2&lt;/span&gt;" style="rounded=0;whiteSpace=wrap;html=1;" vertex="1" parent="1">
          <mxGeometry x="600" y="944" width="90" height="120" as="geometry"/>
        </mxCell>
        <mxCell id="2O-RAt6t5xSQddA-2Dkh-14" value="" style="endArrow=classic;html=1;exitX=0;exitY=1;exitDx=0;exitDy=0;exitPerimeter=0;entryX=0.981;entryY=0.001;entryDx=0;entryDy=0;entryPerimeter=0;" edge="1" parent="1" source="2O-RAt6t5xSQddA-2Dkh-11" target="2O-RAt6t5xSQddA-2Dkh-13">
          <mxGeometry width="50" height="50" relative="1" as="geometry">
            <mxPoint x="420" y="995" as="sourcePoint"/>
            <mxPoint x="692" y="940" as="targetPoint"/>
          </mxGeometry>
        </mxCell>
        <mxCell id="2O-RAt6t5xSQddA-2Dkh-15" value="CLOSE" style="rounded=0;whiteSpace=wrap;html=1;" vertex="1" parent="1">
          <mxGeometry x="1105" y="1190" width="90" height="50" as="geometry"/>
        </mxCell>
        <mxCell id="2O-RAt6t5xSQddA-2Dkh-16" value="" style="endArrow=classic;html=1;entryX=0;entryY=0;entryDx=0;entryDy=0;entryPerimeter=0;exitX=1.022;exitY=1.036;exitDx=0;exitDy=0;exitPerimeter=0;" edge="1" parent="1" source="2O-RAt6t5xSQddA-2Dkh-13" target="2O-RAt6t5xSQddA-2Dkh-15">
          <mxGeometry width="50" height="50" relative="1" as="geometry">
            <mxPoint x="701.98" y="771.96" as="sourcePoint"/>
            <mxPoint x="1300" y="820.9200000000001" as="targetPoint"/>
          </mxGeometry>
        </mxCell>
        <mxCell id="2O-RAt6t5xSQddA-2Dkh-17" value="SYNC_SEND" style="rounded=0;whiteSpace=wrap;html=1;" vertex="1" parent="1">
          <mxGeometry x="600" y="300" width="90" height="200" as="geometry"/>
        </mxCell>
        <mxCell id="2O-RAt6t5xSQddA-2Dkh-18" value="SYNC_REVC" style="rounded=0;whiteSpace=wrap;html=1;" vertex="1" parent="1">
          <mxGeometry x="1105" y="400" width="90" height="190" as="geometry"/>
        </mxCell>
        <mxCell id="2O-RAt6t5xSQddA-2Dkh-19" value="CLOSE_WAIT" style="rounded=0;whiteSpace=wrap;html=1;" vertex="1" parent="1">
          <mxGeometry x="1105" y="860" width="90" height="110" as="geometry"/>
        </mxCell>
        <mxCell id="2O-RAt6t5xSQddA-2Dkh-20" value="" style="endArrow=classic;html=1;exitX=-0.011;exitY=1.002;exitDx=0;exitDy=0;exitPerimeter=0;entryX=1.004;entryY=1.032;entryDx=0;entryDy=0;entryPerimeter=0;" edge="1" parent="1" source="2O-RAt6t5xSQddA-2Dkh-19" target="2O-RAt6t5xSQddA-2Dkh-13">
          <mxGeometry width="50" height="50" relative="1" as="geometry">
            <mxPoint x="1225" y="825" as="sourcePoint"/>
            <mxPoint x="701.98" y="951.02" as="targetPoint"/>
          </mxGeometry>
        </mxCell>
        <mxCell id="2O-RAt6t5xSQddA-2Dkh-21" value="FIN_WAIT_1" style="rounded=0;whiteSpace=wrap;html=1;" vertex="1" parent="1">
          <mxGeometry x="600" y="776" width="90" height="160" as="geometry"/>
        </mxCell>
        <mxCell id="2O-RAt6t5xSQddA-2Dkh-22" value="TIME_WAIT" style="rounded=0;whiteSpace=wrap;html=1;" vertex="1" parent="1">
          <mxGeometry x="600" y="1072" width="90" height="108" as="geometry"/>
        </mxCell>
        <mxCell id="2O-RAt6t5xSQddA-2Dkh-23" value="LAST_ACK" style="rounded=0;whiteSpace=wrap;html=1;" vertex="1" parent="1">
          <mxGeometry x="1105" y="980" width="90" height="200" as="geometry"/>
        </mxCell>
        <mxCell id="2O-RAt6t5xSQddA-2Dkh-25" value="CLOSE" style="rounded=0;whiteSpace=wrap;html=1;" vertex="1" parent="1">
          <mxGeometry x="600" y="1188" width="90" height="50" as="geometry"/>
        </mxCell>
        <mxCell id="2O-RAt6t5xSQddA-2Dkh-26" value="CLOSE" style="rounded=0;whiteSpace=wrap;html=1;" vertex="1" parent="1">
          <mxGeometry x="1105" y="240" width="90" height="55" as="geometry"/>
        </mxCell>
        <mxCell id="2O-RAt6t5xSQddA-2Dkh-28" value="&lt;span style=&quot;white-space: nowrap&quot;&gt;SYN=1&amp;nbsp; seq = n&lt;/span&gt;" style="text;html=1;strokeColor=none;fillColor=none;align=center;verticalAlign=middle;whiteSpace=wrap;rounded=0;rotation=15;" vertex="1" parent="1">
          <mxGeometry x="840" y="310" width="40" height="20" as="geometry"/>
        </mxCell>
        <mxCell id="2O-RAt6t5xSQddA-2Dkh-29" value="&lt;span style=&quot;white-space: nowrap&quot;&gt;ACK=1&amp;nbsp; seq = m ack = n+1&lt;/span&gt;" style="text;html=1;strokeColor=none;fillColor=none;align=center;verticalAlign=middle;whiteSpace=wrap;rounded=0;rotation=-15;" vertex="1" parent="1">
          <mxGeometry x="860" y="430" width="40" height="20" as="geometry"/>
        </mxCell>
        <mxCell id="2O-RAt6t5xSQddA-2Dkh-30" value="&lt;span style=&quot;white-space: nowrap&quot;&gt;SYN=1&amp;nbsp; ack = m + 1&lt;/span&gt;" style="text;html=1;strokeColor=none;fillColor=none;align=center;verticalAlign=middle;whiteSpace=wrap;rounded=0;rotation=15;" vertex="1" parent="1">
          <mxGeometry x="840" y="520" width="40" height="20" as="geometry"/>
        </mxCell>
      </root>
    </mxGraphModel>
  </diagram>
</mxfile>
